<?xml version="1.0" standalone="no"?>
<!DOCTYPE svg PUBLIC "-//W3C//DTD SVG 20010904//EN"
 "http://www.w3.org/TR/2001/REC-SVG-20010904/DTD/svg10.dtd">
<svg version="1.0" xmlns="http://www.w3.org/2000/svg"
 width="697.000000pt" height="400.000000pt" viewBox="0 0 697.000000 400.000000"
 preserveAspectRatio="xMidYMid meet">

<g transform="translate(0.000000,400.000000) scale(0.100000,-0.100000)"
fill="#000000" stroke="none">
<path d="M710 3290 c-157 -22 -380 -80 -380 -100 0 -4 -29 -191 -65 -415 -36
-224 -65 -414 -65 -421 0 -8 25 5 62 32 85 63 265 148 368 176 69 18 112 22
230 22 196 0 311 -23 630 -131 248 -84 258 -86 366 -91 115 -5 177 3 342 40
l94 22 39 57 c21 32 66 91 99 132 40 51 60 84 60 102 l0 27 -57 -47 c-32 -27
-79 -69 -106 -94 -45 -43 -48 -45 -65 -27 -20 20 -19 20 154 162 93 76 97 81
110 168 l7 49 -99 -76 c-55 -43 -123 -98 -151 -123 -45 -39 -55 -45 -68 -34
-14 11 -14 15 2 33 21 23 195 165 274 224 l57 42 24 128 c13 70 23 130 22 132
-2 1 -51 -16 -111 -39 -142 -56 -308 -97 -448 -112 -178 -18 -362 7 -660 92
-81 23 -180 48 -219 56 -87 18 -358 26 -446 14z"/>
<path d="M2444 2558 c-35 -40 -76 -99 -72 -103 2 -3 20 0 39 5 33 9 36 14 46
65 5 30 9 55 8 55 -1 0 -10 -10 -21 -22z"/>
<path d="M6174 2345 c-181 -20 -384 -58 -731 -135 -380 -85 -469 -100 -599
-100 -132 0 -230 25 -351 91 -52 28 -96 49 -98 47 -3 -2 -94 -393 -204 -868
-138 -599 -196 -869 -189 -877 21 -25 125 -88 190 -114 37 -15 116 -40 175
-55 101 -26 121 -28 298 -27 105 1 206 6 225 10 l35 9 71 281 c77 303 101 363
168 417 30 25 48 31 102 34 87 6 132 -14 159 -70 31 -65 24 -143 -33 -383 -28
-115 -50 -211 -48 -212 1 -1 18 2 38 8 43 11 34 -12 123 334 74 290 83 311
151 368 63 53 148 63 215 25 88 -49 93 -132 25 -412 -25 -103 -46 -193 -46
-200 0 -19 78 -7 84 13 3 9 30 113 61 231 31 118 60 231 65 250 9 33 80 154
80 135 0 -4 10 1 23 12 52 49 163 52 218 6 75 -64 76 -123 5 -420 l-52 -221
94 -7 c51 -4 97 -4 102 1 8 9 380 1707 380 1735 0 19 -68 51 -156 74 -142 37
-356 44 -580 20z m416 -163 c94 -47 96 -133 13 -477 -53 -214 -61 -240 -78
-239 -11 1 -60 7 -110 13 -49 6 -127 11 -172 11 -46 0 -83 3 -83 6 0 25 146
556 160 584 52 101 178 149 270 102z m-482 -52 c41 -25 62 -73 62 -142 0 -29
-23 -155 -52 -279 l-53 -226 -105 -12 c-58 -7 -147 -19 -198 -28 -51 -8 -95
-13 -97 -11 -9 9 138 554 160 598 26 51 68 94 105 109 45 18 142 13 178 -9z
m-500 -86 c13 -8 32 -29 42 -47 33 -53 26 -132 -30 -369 -28 -116 -52 -213
-54 -215 -3 -3 -390 -92 -403 -93 -16 -1 141 593 167 636 28 44 84 92 118 100
15 3 32 7 37 9 19 8 100 -7 123 -21z"/>
<path d="M1142 2239 c-237 -30 -466 -141 -912 -439 -63 -43 -120 -83 -126 -91
-12 -14 -50 -246 -43 -254 3 -2 47 12 99 32 144 54 271 83 361 83 90 0 145
-12 404 -86 205 -59 398 -98 538 -109 l88 -7 -5 -27 c-17 -82 -156 -891 -156
-909 0 -24 45 -62 145 -120 182 -106 421 -168 742 -192 116 -9 184 -8 365 6
141 11 372 18 628 20 l405 2 17 89 c9 48 44 230 78 403 33 173 72 371 85 440
13 69 53 276 89 460 36 184 66 336 66 337 0 15 -85 35 -211 49 -182 20 -391
15 -764 -16 -276 -23 -585 -37 -585 -26 0 5 7 48 16 97 9 49 14 92 10 96 -5 5
-53 -7 -93 -23 -7 -3 -13 1 -13 10 0 9 -3 16 -7 16 -5 0 -84 7 -177 15 -223
20 -319 36 -527 89 -237 61 -368 75 -517 55z m877 -670 c41 -162 46 -386 10
-523 -34 -134 -105 -262 -248 -451 -107 -142 -130 -169 -136 -163 -3 2 -15 40
-27 84 -19 68 -22 104 -22 259 0 164 3 189 27 278 48 181 169 397 303 546 31
34 61 58 65 54 5 -5 17 -43 28 -84z m1071 -20 c0 -38 -67 -224 -116 -320 -68
-137 -136 -233 -233 -330 -92 -92 -175 -151 -309 -218 -140 -70 -489 -208
-499 -197 -10 9 48 191 86 272 169 359 484 625 913 769 73 25 139 45 146 45 6
0 12 -10 12 -21z m200 -854 c97 -18 319 -80 333 -94 11 -11 -79 -89 -182 -158
-207 -138 -461 -223 -666 -223 -116 0 -376 43 -585 96 -147 38 -137 31 -99 71
19 19 61 54 94 78 176 126 366 203 591 240 114 18 382 13 514 -10z"/>
</g>
</svg>
