<svg id="visual" viewBox="0 0 900 600" width="900" height="600" xmlns="http://www.w3.org/2000/svg" xmlns:xlink="http://www.w3.org/1999/xlink" version="1.1"><path d="M0 229L13.7 214C27.3 199 54.7 169 82 151C109.3 133 136.7 127 163.8 139C191 151 218 181 245.2 181C272.3 181 299.7 151 327 134C354.3 117 381.7 113 409 130C436.3 147 463.7 185 491 191C518.3 197 545.7 171 573 161C600.3 151 627.7 157 654.8 150C682 143 709 123 736.2 122C763.3 121 790.7 139 818 136C845.3 133 872.7 109 886.3 97L900 85L900 0L886.3 0C872.7 0 845.3 0 818 0C790.7 0 763.3 0 736.2 0C709 0 682 0 654.8 0C627.7 0 600.3 0 573 0C545.7 0 518.3 0 491 0C463.7 0 436.3 0 409 0C381.7 0 354.3 0 327 0C299.7 0 272.3 0 245.2 0C218 0 191 0 163.8 0C136.7 0 109.3 0 82 0C54.7 0 27.3 0 13.7 0L0 0Z" fill="#273645"></path><path d="M0 295L13.7 287C27.3 279 54.7 263 82 252C109.3 241 136.7 235 163.8 239C191 243 218 257 245.2 261C272.3 265 299.7 259 327 254C354.3 249 381.7 245 409 256C436.3 267 463.7 293 491 293C518.3 293 545.7 267 573 262C600.3 257 627.7 273 654.8 275C682 277 709 265 736.2 266C763.3 267 790.7 281 818 266C845.3 251 872.7 207 886.3 185L900 163L900 83L886.3 95C872.7 107 845.3 131 818 134C790.7 137 763.3 119 736.2 120C709 121 682 141 654.8 148C627.7 155 600.3 149 573 159C545.7 169 518.3 195 491 189C463.7 183 436.3 145 409 128C381.7 111 354.3 115 327 132C299.7 149 272.3 179 245.2 179C218 179 191 149 163.8 137C136.7 125 109.3 131 82 149C54.7 167 27.3 197 13.7 212L0 227Z" fill="#2d3f51"></path><path d="M0 349L13.7 350C27.3 351 54.7 353 82 345C109.3 337 136.7 319 163.8 314C191 309 218 317 245.2 326C272.3 335 299.7 345 327 351C354.3 357 381.7 359 409 371C436.3 383 463.7 405 491 398C518.3 391 545.7 355 573 340C600.3 325 627.7 331 654.8 333C682 335 709 333 736.2 343C763.3 353 790.7 375 818 363C845.3 351 872.7 305 886.3 282L900 259L900 161L886.3 183C872.7 205 845.3 249 818 264C790.7 279 763.3 265 736.2 264C709 263 682 275 654.8 273C627.7 271 600.3 255 573 260C545.7 265 518.3 291 491 291C463.7 291 436.3 265 409 254C381.7 243 354.3 247 327 252C299.7 257 272.3 263 245.2 259C218 255 191 241 163.8 237C136.7 233 109.3 239 82 250C54.7 261 27.3 277 13.7 285L0 293Z" fill="#34495e"></path><path d="M0 553L13.7 546C27.3 539 54.7 525 82 519C109.3 513 136.7 515 163.8 523C191 531 218 545 245.2 545C272.3 545 299.7 531 327 529C354.3 527 381.7 537 409 543C436.3 549 463.7 551 491 552C518.3 553 545.7 553 573 547C600.3 541 627.7 529 654.8 525C682 521 709 525 736.2 527C763.3 529 790.7 529 818 524C845.3 519 872.7 509 886.3 504L900 499L900 257L886.3 280C872.7 303 845.3 349 818 361C790.7 373 763.3 351 736.2 341C709 331 682 333 654.8 331C627.7 329 600.3 323 573 338C545.7 353 518.3 389 491 396C463.7 403 436.3 381 409 369C381.7 357 354.3 355 327 349C299.7 343 272.3 333 245.2 324C218 315 191 307 163.8 312C136.7 317 109.3 335 82 343C54.7 351 27.3 349 13.7 348L0 347Z" fill="#465b70"></path><path d="M0 601L13.7 601C27.3 601 54.7 601 82 601C109.3 601 136.7 601 163.8 601C191 601 218 601 245.2 601C272.3 601 299.7 601 327 601C354.3 601 381.7 601 409 601C436.3 601 463.7 601 491 601C518.3 601 545.7 601 573 601C600.3 601 627.7 601 654.8 601C682 601 709 601 736.2 601C763.3 601 790.7 601 818 601C845.3 601 872.7 601 886.3 601L900 601L900 497L886.3 502C872.7 507 845.3 517 818 522C790.7 527 763.3 527 736.2 525C709 523 682 519 654.8 523C627.7 527 600.3 539 573 545C545.7 551 518.3 551 491 550C463.7 549 436.3 547 409 541C381.7 535 354.3 525 327 527C299.7 529 272.3 543 245.2 543C218 543 191 529 163.8 521C136.7 513 109.3 511 82 517C54.7 523 27.3 537 13.7 544L0 551Z" fill="#596d82"></path></svg>